<?xml version="1.0" encoding="UTF-8"?><svg xmlns="http://www.w3.org/2000/svg" viewBox="0 0 573.48 365.17"><defs><style>.d{stroke:#000;}.d,.e,.f,.g,.h,.i,.j,.k,.l,.m,.n{stroke-miterlimit:10;}.d,.f,.g,.h,.j,.n{fill:none;}.d,.m{stroke-width:4px;}.o,.e,.k,.l{fill:#fff;}.e,.g,.n{stroke-width:7px;}.e,.i,.k,.n{stroke:#d22027;}.f{stroke:#149acd;}.p{fill:#d22328;}.g,.l{stroke:#d22328;}.q{fill:#149acd;}.r{font-family:CenturyGothic, Century Gothic;font-size:72px;}.r,.s{fill:#0f9acc;}.h{stroke:#d12029;}.t{fill:#d22027;}.i{fill:silver;}.j{stroke:#0f9acc;}.m{fill:#c3c7c6;stroke:#231f20;}</style></defs><g id="a"/><g id="b"><g id="c"><g><rect x="2.63" y=".98" width="273.7" height="120.51"/><text class="r" transform="translate(20.77 87.79)"><tspan x="0" y="0">Carb</tspan></text><path class="t" d="M202.12,53.49c0-9.4,1.01-16.66,3.03-21.79,2.02-5.13,4.87-9.02,8.55-11.67,3.68-2.65,7.8-3.97,12.35-3.97s8.8,1.33,12.54,4c3.75,2.66,6.71,6.66,8.89,11.99s3.27,12.48,3.27,21.45-1.07,16.06-3.22,21.36c-2.15,5.3-5.11,9.29-8.89,11.99-3.78,2.7-7.97,4.04-12.59,4.04s-8.65-1.31-12.3-3.92-6.5-6.51-8.55-11.7c-2.05-5.18-3.08-12.44-3.08-21.77Zm6.73,.12c0,8.05,.72,14.13,2.15,18.25,1.44,4.12,3.56,7.25,6.37,9.38,2.81,2.13,5.78,3.2,8.91,3.2s6.12-1.04,8.86-3.13c2.74-2.08,4.83-5.21,6.25-9.38,1.78-5.07,2.66-11.18,2.66-18.32s-.79-13.05-2.37-17.62c-1.58-4.57-3.77-7.92-6.56-10.03-2.79-2.12-5.74-3.18-8.84-3.18s-6.13,1.06-8.91,3.18c-2.78,2.12-4.89,5.23-6.34,9.35-1.45,4.12-2.18,10.22-2.18,18.3Z"/><line class="n" x1="235.39" y1="23.79" x2="217.01" y2="84.36"/></g><g><rect class="d" x="297.78" y="2" width="273.7" height="120.51"/><g><path class="s" d="M370.38,46.69l-4.08,3.13c-2.25-2.93-4.95-5.15-8.1-6.66s-6.62-2.27-10.39-2.27c-4.12,0-7.95,.99-11.46,2.97-3.52,1.98-6.24,4.64-8.17,7.98s-2.9,7.1-2.9,11.27c0,6.31,2.16,11.57,6.49,15.79s9.78,6.33,16.37,6.33c7.24,0,13.3-2.83,18.18-8.51l4.08,3.09c-2.58,3.28-5.79,5.82-9.65,7.61s-8.16,2.69-12.92,2.69c-9.05,0-16.18-3.01-21.41-9.04-4.38-5.08-6.57-11.23-6.57-18.42,0-7.57,2.65-13.94,7.96-19.11s11.96-7.75,19.95-7.75c4.83,0,9.19,.96,13.08,2.87,3.89,1.91,7.08,4.59,9.56,8.03Z"/><path class="s" d="M418.05,50.56v38.25h-4.85v-6.57c-2.06,2.51-4.38,4.39-6.94,5.66s-5.37,1.9-8.42,1.9c-5.41,0-10.04-1.96-13.87-5.89-3.83-3.92-5.75-8.7-5.75-14.33s1.93-10.22,5.8-14.13c3.87-3.91,8.52-5.87,13.96-5.87,3.14,0,5.98,.67,8.53,2s4.78,3.34,6.7,6.01v-7.03h4.85Zm-19.67,3.76c-2.74,0-5.27,.67-7.58,2.02-2.32,1.35-4.16,3.24-5.53,5.67-1.37,2.43-2.05,5.01-2.05,7.72s.69,5.27,2.07,7.73c1.38,2.46,3.24,4.37,5.57,5.74,2.33,1.37,4.83,2.05,7.5,2.05s5.24-.68,7.66-2.04c2.41-1.36,4.27-3.2,5.57-5.51s1.95-4.93,1.95-7.83c0-4.42-1.46-8.12-4.37-11.1-2.92-2.97-6.5-4.46-10.76-4.46Z"/><path class="s" d="M427.26,50.56h5.03v5.59c1.5-2.2,3.08-3.85,4.75-4.94s3.4-1.63,5.2-1.63c1.36,0,2.81,.43,4.36,1.3l-2.57,4.15c-1.03-.44-1.9-.67-2.6-.67-1.64,0-3.22,.67-4.75,2.02-1.52,1.35-2.68,3.44-3.48,6.28-.61,2.18-.91,6.59-.91,13.22v12.94h-5.03V50.56Z"/><path class="s" d="M451.1,88.81V35.8h4.92v21.34c2.06-2.53,4.37-4.42,6.92-5.68,2.55-1.25,5.35-1.88,8.39-1.88,5.41,0,10.03,1.96,13.86,5.89,3.83,3.93,5.74,8.69,5.74,14.29s-1.93,10.25-5.79,14.17c-3.86,3.92-8.51,5.87-13.94,5.87-3.11,0-5.94-.67-8.46-2s-4.76-3.34-6.71-6.01v7.03h-4.92Zm19.69-3.76c2.74,0,5.26-.67,7.58-2.02,2.31-1.35,4.16-3.24,5.52-5.68,1.37-2.44,2.05-5.01,2.05-7.73s-.69-5.31-2.07-7.77-3.23-4.38-5.56-5.75-4.81-2.06-7.45-2.06-5.24,.69-7.66,2.06-4.28,3.22-5.58,5.54c-1.3,2.32-1.95,4.93-1.95,7.84,0,4.43,1.46,8.13,4.37,11.11,2.91,2.98,6.5,4.46,10.75,4.46Z"/></g><path class="t" d="M497.26,54.51c0-9.4,1.01-16.66,3.03-21.79,2.02-5.13,4.87-9.02,8.55-11.67,3.68-2.65,7.8-3.97,12.35-3.97s8.8,1.33,12.54,4c3.75,2.66,6.71,6.66,8.89,11.99s3.27,12.48,3.27,21.45-1.07,16.06-3.22,21.36c-2.15,5.3-5.11,9.29-8.89,11.99-3.78,2.7-7.97,4.04-12.59,4.04s-8.65-1.31-12.3-3.92-6.5-6.51-8.55-11.7c-2.05-5.18-3.08-12.44-3.08-21.77Zm6.73,.12c0,8.05,.72,14.13,2.15,18.25,1.44,4.12,3.56,7.25,6.37,9.38,2.81,2.13,5.78,3.2,8.91,3.2s6.12-1.04,8.86-3.13c2.74-2.08,4.83-5.21,6.25-9.38,1.78-5.07,2.66-11.18,2.66-18.32s-.79-13.05-2.37-17.62c-1.58-4.57-3.77-7.92-6.56-10.03-2.79-2.12-5.74-3.18-8.84-3.18s-6.13,1.06-8.91,3.18c-2.78,2.12-4.89,5.23-6.34,9.35-1.45,4.12-2.18,10.22-2.18,18.3Z"/><line class="n" x1="530.54" y1="24.81" x2="512.16" y2="85.38"/></g><g><g><path class="j" d="M69.18,180.69l-4.08,3.13c-2.25-2.93-4.95-5.15-8.1-6.66s-6.62-2.27-10.39-2.27c-4.12,0-7.95,.99-11.46,2.97-3.52,1.98-6.24,4.64-8.17,7.98s-2.9,7.1-2.9,11.27c0,6.31,2.16,11.57,6.49,15.79s9.78,6.33,16.37,6.33c7.24,0,13.3-2.83,18.18-8.51l4.08,3.09c-2.58,3.28-5.79,5.82-9.65,7.61s-8.16,2.69-12.92,2.69c-9.05,0-16.18-3.01-21.41-9.04-4.38-5.08-6.57-11.23-6.57-18.42,0-7.57,2.65-13.94,7.96-19.11s11.96-7.75,19.95-7.75c4.83,0,9.19,.96,13.08,2.87,3.89,1.91,7.08,4.59,9.56,8.03Z"/><path class="j" d="M116.85,184.55v38.25h-4.85v-6.57c-2.06,2.51-4.38,4.39-6.94,5.66s-5.37,1.9-8.42,1.9c-5.41,0-10.04-1.96-13.87-5.89-3.83-3.92-5.75-8.7-5.75-14.33s1.93-10.22,5.8-14.13c3.87-3.91,8.52-5.87,13.96-5.87,3.14,0,5.98,.67,8.53,2s4.78,3.34,6.7,6.01v-7.03h4.85Zm-19.67,3.76c-2.74,0-5.27,.67-7.58,2.02-2.32,1.35-4.16,3.24-5.53,5.67-1.37,2.43-2.05,5.01-2.05,7.72s.69,5.27,2.07,7.73c1.38,2.46,3.24,4.37,5.57,5.74,2.33,1.37,4.83,2.05,7.5,2.05s5.24-.68,7.66-2.04c2.41-1.36,4.27-3.2,5.57-5.51s1.95-4.93,1.95-7.83c0-4.42-1.46-8.12-4.37-11.1-2.92-2.97-6.5-4.46-10.76-4.46Z"/><path class="j" d="M126.06,184.55h5.03v5.59c1.5-2.2,3.08-3.85,4.75-4.94s3.4-1.63,5.2-1.63c1.36,0,2.81,.43,4.36,1.3l-2.57,4.15c-1.03-.44-1.9-.67-2.6-.67-1.64,0-3.22,.67-4.75,2.02-1.52,1.35-2.68,3.44-3.48,6.28-.61,2.18-.91,6.59-.91,13.22v12.94h-5.03v-38.25Z"/><path class="j" d="M149.9,222.8v-53.02h4.92v21.34c2.06-2.53,4.37-4.42,6.92-5.68,2.55-1.25,5.35-1.88,8.39-1.88,5.41,0,10.03,1.96,13.86,5.89,3.83,3.93,5.74,8.69,5.74,14.29s-1.93,10.25-5.79,14.17c-3.86,3.92-8.51,5.87-13.94,5.87-3.11,0-5.94-.67-8.46-2s-4.76-3.34-6.71-6.01v7.03h-4.92Zm19.69-3.76c2.74,0,5.26-.67,7.58-2.02,2.31-1.35,4.16-3.24,5.52-5.68,1.37-2.44,2.05-5.01,2.05-7.73s-.69-5.31-2.07-7.77-3.23-4.38-5.56-5.75-4.81-2.06-7.45-2.06-5.24,.69-7.66,2.06-4.28,3.22-5.58,5.54c-1.3,2.32-1.95,4.93-1.95,7.84,0,4.43,1.46,8.13,4.37,11.11,2.91,2.98,6.5,4.46,10.75,4.46Z"/></g><path class="t" d="M195.76,188.34c0-9.4,1.01-16.66,3.03-21.79,2.02-5.13,4.87-9.02,8.55-11.67,3.68-2.65,7.8-3.97,12.35-3.97s8.8,1.33,12.54,4c3.75,2.66,6.71,6.66,8.89,11.99s3.27,12.48,3.27,21.45-1.07,16.06-3.22,21.36c-2.15,5.3-5.11,9.29-8.89,11.99-3.78,2.7-7.97,4.04-12.59,4.04s-8.65-1.31-12.3-3.92-6.5-6.51-8.55-11.7c-2.05-5.18-3.08-12.44-3.08-21.77Zm6.73,.12c0,8.05,.72,14.13,2.15,18.25,1.44,4.12,3.56,7.25,6.37,9.38,2.81,2.13,5.78,3.2,8.91,3.2s6.12-1.04,8.86-3.13c2.74-2.08,4.83-5.21,6.25-9.38,1.78-5.07,2.66-11.18,2.66-18.32s-.79-13.05-2.37-17.62c-1.58-4.57-3.77-7.92-6.56-10.03-2.79-2.12-5.74-3.18-8.84-3.18s-6.13,1.06-8.91,3.18c-2.78,2.12-4.89,5.23-6.34,9.35-1.45,4.12-2.18,10.22-2.18,18.3Z"/><line class="n" x1="229.04" y1="158.64" x2="210.66" y2="219.21"/><g><path class="s" d="M65.59,180.85l-4.08,3.13c-2.25-2.93-4.95-5.15-8.1-6.66s-6.62-2.27-10.39-2.27c-4.12,0-7.95,.99-11.46,2.97-3.52,1.98-6.24,4.64-8.17,7.98s-2.9,7.1-2.9,11.27c0,6.31,2.16,11.57,6.49,15.79s9.78,6.33,16.37,6.33c7.24,0,13.3-2.83,18.18-8.51l4.08,3.09c-2.58,3.28-5.79,5.82-9.65,7.61s-8.16,2.69-12.92,2.69c-9.05,0-16.18-3.01-21.41-9.04-4.38-5.08-6.57-11.23-6.57-18.42,0-7.57,2.65-13.94,7.96-19.11s11.96-7.75,19.95-7.75c4.83,0,9.19,.96,13.08,2.87,3.89,1.91,7.08,4.59,9.56,8.03Z"/><path class="s" d="M113.26,184.71v38.25h-4.85v-6.57c-2.06,2.51-4.38,4.39-6.94,5.66s-5.37,1.9-8.42,1.9c-5.41,0-10.04-1.96-13.87-5.89-3.83-3.92-5.75-8.7-5.75-14.33s1.93-10.22,5.8-14.13c3.87-3.91,8.52-5.87,13.96-5.87,3.14,0,5.98,.67,8.53,2s4.78,3.34,6.7,6.01v-7.03h4.85Zm-19.67,3.76c-2.74,0-5.27,.67-7.58,2.02-2.32,1.35-4.16,3.24-5.53,5.67-1.37,2.43-2.05,5.01-2.05,7.72s.69,5.27,2.07,7.73c1.38,2.46,3.24,4.37,5.57,5.74,2.33,1.37,4.83,2.05,7.5,2.05s5.24-.68,7.66-2.04c2.41-1.36,4.27-3.2,5.57-5.51s1.95-4.93,1.95-7.83c0-4.42-1.46-8.12-4.37-11.1-2.92-2.97-6.5-4.46-10.76-4.46Z"/><path class="s" d="M122.47,184.71h5.03v5.59c1.5-2.2,3.08-3.85,4.75-4.94s3.4-1.63,5.2-1.63c1.36,0,2.81,.43,4.36,1.3l-2.57,4.15c-1.03-.44-1.9-.67-2.6-.67-1.64,0-3.22,.67-4.75,2.02-1.52,1.35-2.68,3.44-3.48,6.28-.61,2.18-.91,6.59-.91,13.22v12.94h-5.03v-38.25Z"/><path class="s" d="M146.31,222.96v-53.02h4.92v21.34c2.06-2.53,4.37-4.42,6.92-5.68,2.55-1.25,5.35-1.88,8.39-1.88,5.41,0,10.03,1.96,13.86,5.89,3.83,3.93,5.74,8.69,5.74,14.29s-1.93,10.25-5.79,14.17c-3.86,3.92-8.51,5.87-13.94,5.87-3.11,0-5.94-.67-8.46-2s-4.76-3.34-6.71-6.01v7.03h-4.92Zm19.69-3.76c2.74,0,5.26-.67,7.58-2.02,2.31-1.35,4.16-3.24,5.52-5.68,1.37-2.44,2.05-5.01,2.05-7.73s-.69-5.31-2.07-7.77-3.23-4.38-5.56-5.75-4.81-2.06-7.45-2.06-5.24,.69-7.66,2.06-4.28,3.22-5.58,5.54c-1.3,2.32-1.95,4.93-1.95,7.84,0,4.43,1.46,8.13,4.37,11.11,2.91,2.98,6.5,4.46,10.75,4.46Z"/></g><path class="k" d="M201.38,188.34c0-9.4,1.01-16.66,3.03-21.79,2.02-5.13,4.87-9.02,8.55-11.67,3.68-2.65,7.8-3.97,12.35-3.97s8.8,1.33,12.54,4c3.75,2.66,6.71,6.66,8.89,11.99s3.27,12.48,3.27,21.45-1.07,16.06-3.22,21.36c-2.15,5.3-5.11,9.29-8.89,11.99-3.78,2.7-7.97,4.04-12.59,4.04s-8.65-1.31-12.3-3.92-6.5-6.51-8.55-11.7c-2.05-5.18-3.08-12.44-3.08-21.77Zm6.73,.12c0,8.05,.72,14.13,2.15,18.25,1.44,4.12,3.56,7.25,6.37,9.38,2.81,2.13,5.78,3.2,8.91,3.2s6.12-1.04,8.86-3.13c2.74-2.08,4.83-5.21,6.25-9.38,1.78-5.07,2.66-11.18,2.66-18.32s-.79-13.05-2.37-17.62c-1.58-4.57-3.77-7.92-6.56-10.03-2.79-2.12-5.74-3.18-8.84-3.18s-6.13,1.06-8.91,3.18c-2.78,2.12-4.89,5.23-6.34,9.35-1.45,4.12-2.18,10.22-2.18,18.3Z"/><line class="k" x1="233.24" y1="163.31" x2="217.22" y2="216.09"/><rect class="d" x="2.08" y="134.14" width="273.7" height="120.51"/></g><g><rect class="m" x="294.91" y="135.01" width="273.7" height="120.51"/><g><path class="s" d="M358.42,181.72l-4.08,3.13c-2.25-2.93-4.95-5.15-8.1-6.66s-6.62-2.27-10.39-2.27c-4.12,0-7.95,.99-11.46,2.97-3.52,1.98-6.24,4.64-8.17,7.98s-2.9,7.1-2.9,11.27c0,6.31,2.16,11.57,6.49,15.79s9.78,6.33,16.37,6.33c7.24,0,13.3-2.83,18.18-8.51l4.08,3.09c-2.58,3.28-5.79,5.82-9.65,7.61s-8.16,2.69-12.92,2.69c-9.05,0-16.18-3.01-21.41-9.04-4.38-5.08-6.57-11.23-6.57-18.42,0-7.57,2.65-13.94,7.96-19.11s11.96-7.75,19.95-7.75c4.83,0,9.19,.96,13.08,2.87,3.89,1.91,7.08,4.59,9.56,8.03Z"/><path class="s" d="M406.09,185.59v38.25h-4.85v-6.57c-2.06,2.51-4.38,4.39-6.94,5.66s-5.37,1.9-8.42,1.9c-5.41,0-10.04-1.96-13.87-5.89-3.83-3.92-5.75-8.7-5.75-14.33s1.93-10.22,5.8-14.13c3.87-3.91,8.52-5.87,13.96-5.87,3.14,0,5.98,.67,8.53,2s4.78,3.34,6.7,6.01v-7.03h4.85Zm-19.67,3.76c-2.74,0-5.27,.67-7.58,2.02-2.32,1.35-4.16,3.24-5.53,5.67-1.37,2.43-2.05,5.01-2.05,7.72s.69,5.27,2.07,7.73c1.38,2.46,3.24,4.37,5.57,5.74,2.33,1.37,4.83,2.05,7.5,2.05s5.24-.68,7.66-2.04c2.41-1.36,4.27-3.2,5.57-5.51s1.95-4.93,1.95-7.83c0-4.42-1.46-8.12-4.37-11.1-2.92-2.97-6.5-4.46-10.76-4.46Z"/><path class="s" d="M415.31,185.59h5.03v5.59c1.5-2.2,3.08-3.85,4.75-4.94s3.4-1.63,5.2-1.63c1.36,0,2.81,.43,4.36,1.3l-2.57,4.15c-1.03-.44-1.9-.67-2.6-.67-1.64,0-3.22,.67-4.75,2.02-1.52,1.35-2.68,3.44-3.48,6.28-.61,2.18-.91,6.59-.91,13.22v12.94h-5.03v-38.25Z"/><path class="s" d="M439.14,223.84v-53.02h4.92v21.34c2.06-2.53,4.37-4.42,6.92-5.68,2.55-1.25,5.35-1.88,8.39-1.88,5.41,0,10.03,1.96,13.86,5.89,3.83,3.93,5.74,8.69,5.74,14.29s-1.93,10.25-5.79,14.17c-3.86,3.92-8.51,5.87-13.94,5.87-3.11,0-5.94-.67-8.46-2s-4.76-3.34-6.71-6.01v7.03h-4.92Zm19.69-3.76c2.74,0,5.26-.67,7.58-2.02,2.31-1.35,4.16-3.24,5.52-5.68,1.37-2.44,2.05-5.01,2.05-7.73s-.69-5.31-2.07-7.77-3.23-4.38-5.56-5.75-4.81-2.06-7.45-2.06-5.24,.69-7.66,2.06-4.28,3.22-5.58,5.54c-1.3,2.32-1.95,4.93-1.95,7.84,0,4.43,1.46,8.13,4.37,11.11,2.91,2.98,6.5,4.46,10.75,4.46Z"/></g><g><path class="j" d="M362.02,181.57l-4.08,3.13c-2.25-2.93-4.95-5.15-8.1-6.66s-6.62-2.27-10.39-2.27c-4.12,0-7.95,.99-11.46,2.97-3.52,1.98-6.24,4.64-8.17,7.98s-2.9,7.1-2.9,11.27c0,6.31,2.16,11.57,6.49,15.79s9.78,6.33,16.37,6.33c7.24,0,13.3-2.83,18.18-8.51l4.08,3.09c-2.58,3.28-5.79,5.82-9.65,7.61s-8.16,2.69-12.92,2.69c-9.05,0-16.18-3.01-21.41-9.04-4.38-5.08-6.57-11.23-6.57-18.42,0-7.57,2.65-13.94,7.96-19.11s11.96-7.75,19.95-7.75c4.83,0,9.19,.96,13.08,2.87,3.89,1.91,7.08,4.59,9.56,8.03Z"/><path class="j" d="M409.69,185.43v38.25h-4.85v-6.57c-2.06,2.51-4.38,4.39-6.94,5.66s-5.37,1.9-8.42,1.9c-5.41,0-10.04-1.96-13.87-5.89-3.83-3.92-5.75-8.7-5.75-14.33s1.93-10.22,5.8-14.13c3.87-3.91,8.52-5.87,13.96-5.87,3.14,0,5.98,.67,8.53,2s4.78,3.34,6.7,6.01v-7.03h4.85Zm-19.67,3.76c-2.74,0-5.27,.67-7.58,2.02-2.32,1.35-4.16,3.24-5.53,5.67-1.37,2.43-2.05,5.01-2.05,7.72s.69,5.27,2.07,7.73c1.38,2.46,3.24,4.37,5.57,5.74,2.33,1.37,4.83,2.05,7.5,2.05s5.24-.68,7.66-2.04c2.41-1.36,4.27-3.2,5.57-5.51s1.95-4.93,1.95-7.83c0-4.42-1.46-8.12-4.37-11.1-2.92-2.97-6.5-4.46-10.76-4.46Z"/><path class="j" d="M418.9,185.43h5.03v5.59c1.5-2.2,3.08-3.85,4.75-4.94s3.4-1.63,5.2-1.63c1.36,0,2.81,.43,4.36,1.3l-2.57,4.15c-1.03-.44-1.9-.67-2.6-.67-1.64,0-3.22,.67-4.75,2.02-1.52,1.35-2.68,3.44-3.48,6.28-.61,2.18-.91,6.59-.91,13.22v12.94h-5.03v-38.25Z"/><path class="j" d="M442.74,223.68v-53.02h4.92v21.34c2.06-2.53,4.37-4.42,6.92-5.68,2.55-1.25,5.35-1.88,8.39-1.88,5.41,0,10.03,1.96,13.86,5.89,3.83,3.93,5.74,8.69,5.74,14.29s-1.93,10.25-5.79,14.17c-3.86,3.92-8.51,5.87-13.94,5.87-3.11,0-5.94-.67-8.46-2s-4.76-3.34-6.71-6.01v7.03h-4.92Zm19.69-3.76c2.74,0,5.26-.67,7.58-2.02,2.31-1.35,4.16-3.24,5.52-5.68,1.37-2.44,2.05-5.01,2.05-7.73s-.69-5.31-2.07-7.77-3.23-4.38-5.56-5.75-4.81-2.06-7.45-2.06-5.24,.69-7.66,2.06-4.28,3.22-5.58,5.54c-1.3,2.32-1.95,4.93-1.95,7.84,0,4.43,1.46,8.13,4.37,11.11,2.91,2.98,6.5,4.46,10.75,4.46Z"/></g><path class="t" d="M488.6,189.22c0-9.4,1.01-16.66,3.03-21.79,2.02-5.13,4.87-9.02,8.55-11.67,3.68-2.65,7.8-3.97,12.35-3.97s8.8,1.33,12.54,4c3.75,2.66,6.71,6.66,8.89,11.99s3.27,12.48,3.27,21.45-1.07,16.06-3.22,21.36c-2.15,5.3-5.11,9.29-8.89,11.99-3.78,2.7-7.97,4.04-12.59,4.04s-8.65-1.31-12.3-3.92-6.5-6.51-8.55-11.7c-2.05-5.18-3.08-12.44-3.08-21.77Zm6.73,.12c0,8.05,.72,14.13,2.15,18.25,1.44,4.12,3.56,7.25,6.37,9.38,2.81,2.13,5.78,3.2,8.91,3.2s6.12-1.04,8.86-3.13c2.74-2.08,4.83-5.21,6.25-9.38,1.78-5.07,2.66-11.18,2.66-18.32s-.79-13.05-2.37-17.62c-1.58-4.57-3.77-7.92-6.56-10.03-2.79-2.12-5.74-3.18-8.84-3.18s-6.13,1.06-8.91,3.18c-2.78,2.12-4.89,5.23-6.34,9.35-1.45,4.12-2.18,10.22-2.18,18.3Z"/><line class="e" x1="521.88" y1="159.51" x2="503.49" y2="220.09"/><path class="i" d="M494.22,189.22c0-9.4,1.01-16.66,3.03-21.79,2.02-5.13,4.87-9.02,8.55-11.67,3.68-2.65,7.8-3.97,12.35-3.97s8.8,1.33,12.54,4c3.75,2.66,6.71,6.66,8.89,11.99s3.27,12.48,3.27,21.45-1.07,16.06-3.22,21.36c-2.15,5.3-5.11,9.29-8.89,11.99-3.78,2.7-7.97,4.04-12.59,4.04s-8.65-1.31-12.3-3.92-6.5-6.51-8.55-11.7c-2.05-5.18-3.08-12.44-3.08-21.77Zm6.73,.12c0,8.05,.72,14.13,2.15,18.25,1.44,4.12,3.56,7.25,6.37,9.38,2.81,2.13,5.78,3.2,8.91,3.2s6.12-1.04,8.86-3.13c2.74-2.08,4.83-5.21,6.25-9.38,1.78-5.07,2.66-11.18,2.66-18.32s-.79-13.05-2.37-17.62c-1.58-4.57-3.77-7.92-6.56-10.03-2.79-2.12-5.74-3.18-8.84-3.18s-6.13,1.06-8.91,3.18c-2.78,2.12-4.89,5.23-6.34,9.35-1.45,4.12-2.18,10.22-2.18,18.3Z"/><line class="k" x1="526.08" y1="164.19" x2="510.06" y2="216.97"/></g><g><path class="j" d="M103.22,316.32v38.25h-4.85v-6.57c-2.06,2.51-4.38,4.39-6.94,5.66s-5.37,1.9-8.42,1.9c-5.41,0-10.04-1.96-13.87-5.89-3.83-3.92-5.75-8.7-5.75-14.33s1.93-10.22,5.8-14.13c3.87-3.91,8.52-5.87,13.96-5.87,3.14,0,5.98,.67,8.53,2s4.78,3.34,6.7,6.01v-7.03h4.85Zm-19.67,3.76c-2.74,0-5.27,.67-7.58,2.02-2.32,1.35-4.16,3.24-5.53,5.67-1.37,2.43-2.05,5.01-2.05,7.72s.69,5.27,2.07,7.73c1.38,2.46,3.24,4.37,5.57,5.74,2.33,1.37,4.83,2.05,7.5,2.05s5.24-.68,7.66-2.04c2.41-1.36,4.27-3.2,5.57-5.51s1.95-4.93,1.95-7.83c0-4.42-1.46-8.12-4.37-11.1-2.92-2.97-6.5-4.46-10.76-4.46Z"/><path class="j" d="M112.43,316.32h5.03v5.59c1.5-2.2,3.08-3.85,4.75-4.94s3.4-1.63,5.2-1.63c1.36,0,2.81,.43,4.36,1.3l-2.57,4.15c-1.03-.44-1.9-.67-2.6-.67-1.64,0-3.22,.67-4.75,2.02-1.52,1.35-2.68,3.44-3.48,6.28-.61,2.18-.91,6.59-.91,13.22v12.94h-5.03v-38.25Z"/><g><rect class="o" y="279.93" width="238.3" height="83.06"/><path class="j" d="M55.55,312.45l-4.08,3.13c-2.25-2.93-4.95-5.15-8.1-6.66s-6.62-2.27-10.39-2.27c-4.12,0-7.95,.99-11.46,2.97-3.52,1.98-6.24,4.64-8.17,7.98s-2.9,7.1-2.9,11.27c0,6.31,2.16,11.57,6.49,15.79s9.78,6.33,16.37,6.33c7.24,0,13.3-2.83,18.18-8.51l4.08,3.09c-2.58,3.28-5.79,5.82-9.65,7.61s-8.16,2.69-12.92,2.69c-9.05,0-16.18-3.01-21.41-9.04-4.38-5.08-6.57-11.23-6.57-18.42,0-7.57,2.65-13.94,7.96-19.11s11.96-7.75,19.95-7.75c4.83,0,9.19,.96,13.08,2.87,3.89,1.91,7.08,4.59,9.56,8.03Z"/><path class="j" d="M136.27,354.57v-53.02h4.92v21.34c2.06-2.53,4.37-4.42,6.92-5.68,2.55-1.25,5.35-1.88,8.39-1.88,5.41,0,10.03,1.96,13.86,5.89,3.83,3.93,5.74,8.69,5.74,14.29s-1.93,10.25-5.79,14.17c-3.86,3.92-8.51,5.87-13.94,5.87-3.11,0-5.94-.67-8.46-2s-4.76-3.34-6.71-6.01v7.03h-4.92Zm19.69-3.76c2.74,0,5.26-.67,7.58-2.02,2.31-1.35,4.16-3.24,5.52-5.68,1.37-2.44,2.05-5.01,2.05-7.73s-.69-5.31-2.07-7.77-3.23-4.38-5.56-5.75-4.81-2.06-7.45-2.06-5.24,.69-7.66,2.06-4.28,3.22-5.58,5.54c-1.3,2.32-1.95,4.93-1.95,7.84,0,4.43,1.46,8.13,4.37,11.11,2.91,2.98,6.5,4.46,10.75,4.46Z"/><g><path class="s" d="M51.96,312.61l-4.08,3.13c-2.25-2.93-4.95-5.15-8.1-6.66s-6.62-2.27-10.39-2.27c-4.12,0-7.95,.99-11.46,2.97-3.52,1.98-6.24,4.64-8.17,7.98s-2.9,7.1-2.9,11.27c0,6.31,2.16,11.57,6.49,15.79s9.78,6.33,16.37,6.33c7.24,0,13.3-2.83,18.18-8.51l4.08,3.09c-2.58,3.28-5.79,5.82-9.65,7.61s-8.16,2.69-12.92,2.69c-9.05,0-16.18-3.01-21.41-9.04-4.38-5.08-6.57-11.23-6.57-18.42,0-7.57,2.65-13.94,7.96-19.11s11.96-7.75,19.95-7.75c4.83,0,9.19,.96,13.08,2.87,3.89,1.91,7.08,4.59,9.56,8.03Z"/><path class="s" d="M99.63,316.48v38.25h-4.85v-6.57c-2.06,2.51-4.38,4.39-6.94,5.66s-5.37,1.9-8.42,1.9c-5.41,0-10.04-1.96-13.87-5.89-3.83-3.92-5.75-8.7-5.75-14.33s1.93-10.22,5.8-14.13c3.87-3.91,8.52-5.87,13.96-5.87,3.14,0,5.98,.67,8.53,2s4.78,3.34,6.7,6.01v-7.03h4.85Zm-19.67,3.76c-2.74,0-5.27,.67-7.58,2.02-2.32,1.35-4.16,3.24-5.53,5.67-1.37,2.43-2.05,5.01-2.05,7.72s.69,5.27,2.07,7.73c1.38,2.46,3.24,4.37,5.57,5.74,2.33,1.37,4.83,2.05,7.5,2.05s5.24-.68,7.66-2.04c2.41-1.36,4.27-3.2,5.57-5.51s1.95-4.93,1.95-7.83c0-4.42-1.46-8.12-4.37-11.1-2.92-2.97-6.5-4.46-10.76-4.46Z"/><path class="s" d="M108.84,316.48h5.03v5.59c1.5-2.2,3.08-3.85,4.75-4.94s3.4-1.63,5.2-1.63c1.36,0,2.81,.43,4.36,1.3l-2.57,4.15c-1.03-.44-1.9-.67-2.6-.67-1.64,0-3.22,.67-4.75,2.02-1.52,1.35-2.68,3.44-3.48,6.28-.61,2.18-.91,6.59-.91,13.22v12.94h-5.03v-38.25Z"/><path class="s" d="M132.68,354.73v-53.02h4.92v21.34c2.06-2.53,4.37-4.42,6.92-5.68,2.55-1.25,5.35-1.88,8.39-1.88,5.41,0,10.03,1.96,13.86,5.89,3.83,3.93,5.74,8.69,5.74,14.29s-1.93,10.25-5.79,14.17c-3.86,3.92-8.51,5.87-13.94,5.87-3.11,0-5.94-.67-8.46-2s-4.76-3.34-6.71-6.01v7.03h-4.92Zm19.69-3.76c2.74,0,5.26-.67,7.58-2.02,2.31-1.35,4.16-3.24,5.52-5.68,1.37-2.44,2.05-5.01,2.05-7.73s-.69-5.31-2.07-7.77-3.23-4.38-5.56-5.75-4.81-2.06-7.45-2.06-5.24,.69-7.66,2.06-4.28,3.22-5.58,5.54c-1.3,2.32-1.95,4.93-1.95,7.84,0,4.43,1.46,8.13,4.37,11.11,2.91,2.98,6.5,4.46,10.75,4.46Z"/></g><path class="t" d="M181.03,321.48c0-9.4,1.01-16.66,3.03-21.79,2.02-5.13,4.87-9.02,8.55-11.67,3.68-2.65,7.8-3.97,12.35-3.97s8.8,1.33,12.54,4c3.75,2.66,6.71,6.66,8.89,11.99s3.27,12.48,3.27,21.45-1.07,16.06-3.22,21.36c-2.15,5.3-5.11,9.29-8.89,11.99-3.78,2.7-7.97,4.04-12.59,4.04s-8.65-1.31-12.3-3.92-6.5-6.51-8.55-11.7c-2.05-5.18-3.08-12.44-3.08-21.77Zm6.73,.12c0,8.05,.72,14.13,2.15,18.25,1.44,4.12,3.56,7.25,6.37,9.38,2.81,2.13,5.78,3.2,8.91,3.2s6.12-1.04,8.86-3.13c2.74-2.08,4.83-5.21,6.25-9.38,1.78-5.07,2.66-11.18,2.66-18.32s-.79-13.05-2.37-17.62c-1.58-4.57-3.77-7.92-6.56-10.03-2.79-2.12-5.74-3.18-8.84-3.18s-6.13,1.06-8.91,3.18c-2.78,2.12-4.89,5.23-6.34,9.35-1.45,4.12-2.18,10.22-2.18,18.3Z"/><line class="n" x1="214.31" y1="291.78" x2="195.93" y2="352.36"/><path class="k" d="M186.65,321.48c0-9.4,1.01-16.66,3.03-21.79,2.02-5.13,4.87-9.02,8.55-11.67,3.68-2.65,7.8-3.97,12.35-3.97s8.8,1.33,12.54,4c3.75,2.66,6.71,6.66,8.89,11.99s3.27,12.48,3.27,21.45-1.07,16.06-3.22,21.36c-2.15,5.3-5.11,9.29-8.89,11.99-3.78,2.7-7.97,4.04-12.59,4.04s-8.65-1.31-12.3-3.92-6.5-6.51-8.55-11.7c-2.05-5.18-3.08-12.44-3.08-21.77Zm6.73,.12c0,8.05,.72,14.13,2.15,18.25,1.44,4.12,3.56,7.25,6.37,9.38,2.81,2.13,5.78,3.2,8.91,3.2s6.12-1.04,8.86-3.13c2.74-2.08,4.83-5.21,6.25-9.38,1.78-5.07,2.66-11.18,2.66-18.32s-.79-13.05-2.37-17.62c-1.58-4.57-3.77-7.92-6.56-10.03-2.79-2.12-5.74-3.18-8.84-3.18s-6.13,1.06-8.91,3.18c-2.78,2.12-4.89,5.23-6.34,9.35-1.45,4.12-2.18,10.22-2.18,18.3Z"/><line class="k" x1="218.51" y1="296.45" x2="202.49" y2="349.23"/></g></g><g><line class="l" x1="547.8" y1="281.89" x2="524.44" y2="356.08"/><g><path class="f" d="M331.68,303.11l-5.41,4.15c-2.98-3.89-6.57-6.83-10.75-8.84s-8.77-3.01-13.78-3.01c-5.47,0-10.54,1.31-15.2,3.94-4.66,2.63-8.28,6.15-10.84,10.58-2.56,4.43-3.85,9.41-3.85,14.94,0,8.36,2.87,15.34,8.6,20.93,5.73,5.59,12.97,8.39,21.7,8.39,9.6,0,17.64-3.76,24.11-11.28l5.41,4.1c-3.42,4.35-7.69,7.72-12.8,10.09s-10.82,3.57-17.13,3.57c-12,0-21.46-3.99-28.39-11.98-5.81-6.74-8.72-14.89-8.72-24.43,0-10.04,3.52-18.49,10.56-25.34,7.04-6.85,15.86-10.28,26.46-10.28,6.4,0,12.18,1.27,17.34,3.8,5.16,2.53,9.39,6.08,12.68,10.65Z"/><path class="f" d="M394.9,308.24v50.73h-6.43v-8.72c-2.74,3.33-5.8,5.83-9.21,7.51s-7.13,2.52-11.17,2.52c-7.18,0-13.31-2.6-18.39-7.81-5.08-5.21-7.62-11.54-7.62-19s2.56-13.55,7.69-18.74c5.13-5.19,11.3-7.79,18.51-7.79,4.17,0,7.93,.89,11.31,2.66s6.33,4.43,8.88,7.97v-9.32h6.43Zm-26.09,4.99c-3.63,0-6.99,.89-10.06,2.68-3.07,1.79-5.52,4.29-7.34,7.52-1.82,3.23-2.72,6.64-2.72,10.24s.92,6.99,2.75,10.25c1.83,3.26,4.29,5.8,7.38,7.61,3.09,1.82,6.4,2.72,9.94,2.72s6.95-.9,10.15-2.7c3.2-1.8,5.66-4.24,7.38-7.31s2.59-6.54,2.59-10.39c0-5.87-1.93-10.77-5.8-14.72-3.87-3.94-8.62-5.91-14.27-5.91Z"/><path class="f" d="M407.12,308.24h6.67v7.41c1.99-2.92,4.09-5.11,6.29-6.55s4.51-2.17,6.9-2.17c1.8,0,3.73,.58,5.78,1.73l-3.4,5.5c-1.37-.59-2.52-.89-3.45-.89-2.18,0-4.27,.89-6.29,2.68-2.02,1.79-3.56,4.56-4.62,8.32-.81,2.89-1.21,8.74-1.21,17.53v17.16h-6.67v-50.73Z"/><path class="f" d="M438.73,358.97v-70.31h6.53v28.3c2.73-3.36,5.79-5.87,9.18-7.53,3.38-1.66,7.09-2.49,11.13-2.49,7.17,0,13.3,2.6,18.38,7.81,5.08,5.21,7.62,11.52,7.62,18.95s-2.56,13.6-7.69,18.79c-5.12,5.19-11.29,7.79-18.49,7.79-4.13,0-7.87-.89-11.22-2.66-3.35-1.77-6.32-4.43-8.9-7.97v9.32h-6.53Zm26.11-4.99c3.63,0,6.98-.89,10.05-2.68,3.07-1.79,5.51-4.3,7.33-7.53,1.81-3.23,2.72-6.65,2.72-10.26s-.91-7.04-2.74-10.3-4.29-5.8-7.37-7.62-6.38-2.73-9.88-2.73-6.95,.91-10.16,2.73-5.68,4.27-7.4,7.34c-1.72,3.08-2.58,6.54-2.58,10.4,0,5.87,1.93,10.79,5.79,14.73,3.86,3.95,8.61,5.92,14.26,5.92Z"/><g><path class="q" d="M326.91,303.32l-5.41,4.15c-2.98-3.89-6.57-6.83-10.75-8.84-4.18-2-8.77-3.01-13.78-3.01-5.47,0-10.54,1.31-15.2,3.94-4.66,2.63-8.28,6.15-10.84,10.58s-3.85,9.41-3.85,14.94c0,8.36,2.87,15.34,8.6,20.93,5.73,5.59,12.97,8.39,21.7,8.39,9.6,0,17.64-3.76,24.11-11.28l5.41,4.1c-3.42,4.35-7.69,7.72-12.8,10.09-5.11,2.38-10.82,3.57-17.13,3.57-12,0-21.46-3.99-28.39-11.98-5.81-6.74-8.72-14.89-8.72-24.43,0-10.04,3.52-18.49,10.56-25.34,7.04-6.85,15.86-10.28,26.46-10.28,6.4,0,12.18,1.27,17.34,3.8,5.16,2.53,9.39,6.08,12.68,10.65Z"/><path class="q" d="M390.14,308.45v50.73h-6.43v-8.72c-2.74,3.33-5.8,5.83-9.21,7.51-3.4,1.68-7.13,2.52-11.17,2.52-7.18,0-13.31-2.6-18.39-7.81-5.08-5.21-7.62-11.54-7.62-19s2.56-13.55,7.69-18.74c5.13-5.19,11.3-7.79,18.51-7.79,4.17,0,7.93,.89,11.31,2.66,3.37,1.77,6.33,4.43,8.88,7.97v-9.32h6.43Zm-26.09,4.99c-3.63,0-6.99,.89-10.06,2.68-3.07,1.79-5.52,4.29-7.34,7.52-1.82,3.23-2.72,6.64-2.72,10.24s.92,6.99,2.75,10.25c1.83,3.26,4.29,5.8,7.38,7.61,3.09,1.82,6.4,2.72,9.94,2.72s6.95-.9,10.15-2.7c3.2-1.8,5.66-4.24,7.38-7.31s2.59-6.54,2.59-10.39c0-5.87-1.93-10.77-5.8-14.72-3.87-3.94-8.62-5.91-14.27-5.91Z"/><path class="q" d="M402.35,308.45h6.67v7.41c1.99-2.92,4.09-5.11,6.29-6.55s4.51-2.17,6.9-2.17c1.8,0,3.73,.58,5.78,1.73l-3.4,5.5c-1.37-.59-2.52-.89-3.45-.89-2.18,0-4.27,.89-6.29,2.68-2.02,1.79-3.56,4.56-4.62,8.32-.81,2.89-1.21,8.74-1.21,17.53v17.16h-6.67v-50.73Z"/><path class="q" d="M433.96,359.18v-70.31h6.53v28.3c2.73-3.36,5.79-5.87,9.18-7.53,3.38-1.66,7.09-2.49,11.13-2.49,7.17,0,13.3,2.6,18.38,7.81,5.08,5.21,7.62,11.52,7.62,18.95s-2.56,13.6-7.69,18.79c-5.12,5.19-11.29,7.79-18.49,7.79-4.13,0-7.87-.89-11.22-2.66s-6.32-4.43-8.9-7.97v9.32h-6.53Zm26.11-4.99c3.63,0,6.98-.89,10.05-2.68,3.07-1.79,5.51-4.3,7.33-7.53,1.81-3.23,2.72-6.65,2.72-10.26s-.91-7.04-2.74-10.3c-1.83-3.26-4.29-5.8-7.37-7.62-3.09-1.82-6.38-2.73-9.88-2.73s-6.95,.91-10.16,2.73c-3.21,1.82-5.68,4.27-7.4,7.34-1.72,3.08-2.58,6.54-2.58,10.4,0,5.87,1.93,10.79,5.79,14.73,3.86,3.95,8.61,5.92,14.26,5.92Z"/></g><path class="p" d="M498.09,315.09c0-12.46,1.34-22.09,4.01-28.9,2.68-6.81,6.45-11.97,11.34-15.48,4.88-3.51,10.34-5.27,16.38-5.27s11.67,1.77,16.63,5.3c4.97,3.53,8.89,8.83,11.79,15.9,2.89,7.06,4.33,16.55,4.33,28.45s-1.42,21.3-4.27,28.32c-2.85,7.02-6.78,12.32-11.79,15.9-5.01,3.57-10.58,5.36-16.7,5.36s-11.48-1.73-16.31-5.2c-4.84-3.47-8.62-8.64-11.34-15.51-2.72-6.87-4.08-16.5-4.08-28.87Zm8.93,.16c0,10.67,.95,18.74,2.86,24.2,1.91,5.46,4.72,9.61,8.45,12.44,3.72,2.83,7.66,4.24,11.82,4.24s8.11-1.38,11.75-4.15c3.64-2.76,6.4-6.91,8.28-12.44,2.35-6.73,3.53-14.83,3.53-24.3s-1.05-17.3-3.15-23.36c-2.1-6.06-5-10.5-8.7-13.3-3.7-2.81-7.61-4.21-11.72-4.21s-8.14,1.4-11.82,4.21c-3.68,2.81-6.49,6.94-8.41,12.4-1.93,5.46-2.89,13.55-2.89,24.27Z"/><line class="g" x1="542.23" y1="275.7" x2="517.85" y2="356.03"/><path class="h" d="M505.54,315.09c0-12.46,1.34-22.09,4.01-28.9,2.68-6.81,6.45-11.97,11.34-15.48,4.88-3.51,10.34-5.27,16.38-5.27s11.67,1.77,16.63,5.3c4.97,3.53,8.89,8.83,11.79,15.9,2.89,7.06,4.33,16.55,4.33,28.45s-1.42,21.3-4.27,28.32c-2.85,7.02-6.78,12.32-11.79,15.9-5.01,3.57-10.58,5.36-16.7,5.36s-11.48-1.73-16.31-5.2c-4.84-3.47-8.62-8.64-11.34-15.51-2.72-6.87-4.08-16.5-4.08-28.87Zm28.72,40.73c1.09,.21,2.2,.31,3.33,.31,4.19,0,8.11-1.38,11.75-4.15,3.64-2.76,6.4-6.91,8.28-12.44,2.35-6.73,3.53-14.83,3.53-24.3s-1.05-17.3-3.15-23.36c-2.1-6.06-5-10.5-8.7-13.3-3.7-2.81-7.61-4.21-11.72-4.21s-8.14,1.4-11.82,4.21c-3.68,2.81-6.49,6.94-8.41,12.4-1.93,5.46-2.89,13.55-2.89,24.27s.95,18.74,2.86,24.2c1.31,3.74,3.04,6.87,5.2,9.37m3.69,3.39c2.58,1.88,5.27,3.08,8.06,3.61m-8.28-3.77c.07,.05,.15,.11,.22,.16m-.44-.32c.07,.05,.14,.11,.22,.16"/></g></g></g></g></svg>